<svg xmlns="http://www.w3.org/2000/svg" viewBox="0 0 640 420" role="img" aria-labelledby="title desc">
  <title id="title">Blue Mojito illustration</title>
  <desc id="desc">A chilled blue mojito with ice, lemon slices, and mint.</desc>
  <defs>
    <linearGradient id="bg" x1="0%" y1="0%" x2="100%" y2="100%">
      <stop offset="0%" stop-color="#ecfbff"/>
      <stop offset="100%" stop-color="#cbeeff"/>
    </linearGradient>
    <linearGradient id="glass" x1="0%" y1="0%" x2="0%" y2="100%">
      <stop offset="0%" stop-color="#ffffff" stop-opacity="0.88"/>
      <stop offset="100%" stop-color="#d5f2ff" stop-opacity="0.68"/>
    </linearGradient>
    <linearGradient id="drink" x1="0%" y1="0%" x2="0%" y2="100%">
      <stop offset="0%" stop-color="#60c7ff"/>
      <stop offset="100%" stop-color="#1f7cce"/>
    </linearGradient>
  </defs>
  <rect width="640" height="420" rx="36" fill="url(#bg)"/>
  <circle cx="104" cy="80" r="58" fill="#d6f5ff" opacity="0.8"/>
  <circle cx="526" cy="90" r="70" fill="#daf4ff" opacity="0.72"/>
  <ellipse cx="320" cy="356" rx="212" ry="24" fill="#9fb7c2" opacity="0.24"/>
  <path d="M246 84l-18 60" stroke="#4f7f53" stroke-width="8" stroke-linecap="round"/>
  <path d="M284 90c18 2 34 14 42 30-18 0-32-6-44-20-2-4-2-8 2-10z" fill="#58b06a"/>
  <rect x="226" y="96" width="188" height="208" rx="32" fill="url(#glass)"/>
  <rect x="244" y="126" width="152" height="166" rx="24" fill="url(#drink)"/>
  <g fill="#d8f6ff" opacity="0.7">
    <circle cx="274" cy="164" r="14"/>
    <circle cx="330" cy="198" r="12"/>
    <circle cx="360" cy="154" r="16"/>
    <circle cx="302" cy="236" r="10"/>
  </g>
  <circle cx="376" cy="148" r="28" fill="none" stroke="#f5db69" stroke-width="10"/>
  <path d="M352 148h48" stroke="#f5db69" stroke-width="7" stroke-linecap="round"/>
  <path d="M280 118c18 8 34 22 44 42" stroke="#ffffff" stroke-width="7" stroke-linecap="round" opacity="0.7"/>
  <path d="M212 90l80 18" stroke="#ffffff" stroke-width="5" stroke-linecap="round" opacity="0.75"/>
  <text x="320" y="336" text-anchor="middle" font-family="Manrope, Arial, sans-serif" font-size="31" font-weight="800" fill="#2d78a8">Blue Mojito</text>
</svg>
