<svg xmlns="http://www.w3.org/2000/svg" viewBox="0 0 640 420" role="img" aria-labelledby="title desc">
  <title id="title">Chicken Biryani illustration</title>
  <desc id="desc">A bowl of chicken biryani with saffron rice, herbs, and warm spices.</desc>
  <defs>
    <linearGradient id="bg" x1="0%" y1="0%" x2="100%" y2="100%">
      <stop offset="0%" stop-color="#fff8e7"/>
      <stop offset="100%" stop-color="#ffd8b8"/>
    </linearGradient>
    <linearGradient id="bowl" x1="0%" y1="0%" x2="0%" y2="100%">
      <stop offset="0%" stop-color="#fffdfb"/>
      <stop offset="100%" stop-color="#d9e1e7"/>
    </linearGradient>
    <linearGradient id="rice" x1="0%" y1="0%" x2="100%" y2="100%">
      <stop offset="0%" stop-color="#ffd96e"/>
      <stop offset="100%" stop-color="#de8e2b"/>
    </linearGradient>
  </defs>
  <rect width="640" height="420" rx="36" fill="url(#bg)"/>
  <circle cx="106" cy="82" r="62" fill="#ffeab4" opacity="0.8"/>
  <circle cx="540" cy="88" r="72" fill="#ffd2c0" opacity="0.75"/>
  <path d="M56 320c54-26 126-26 180 0s126 26 180 0 126-26 180 0v100H56z" fill="#fff2df" opacity="0.42"/>
  <ellipse cx="320" cy="356" rx="220" ry="24" fill="#cba487" opacity="0.28"/>
  <ellipse cx="320" cy="218" rx="178" ry="74" fill="url(#rice)"/>
  <path d="M142 220c16 88 86 136 178 136s162-48 178-136z" fill="url(#bowl)"/>
  <path d="M198 188c40 18 82 28 122 28 48 0 92-8 134-26" stroke="#f8b643" stroke-width="14" stroke-linecap="round"/>
  <path d="M188 212c54 14 100 20 134 20 44 0 84-8 138-24" stroke="#fff8ea" stroke-width="12" stroke-linecap="round" opacity="0.72"/>
  <path d="M214 238c42 10 78 14 108 14 38 0 74-6 112-16" stroke="#f7c95d" stroke-width="12" stroke-linecap="round" opacity="0.92"/>
  <g fill="#845039">
    <circle cx="232" cy="192" r="13"/>
    <circle cx="390" cy="184" r="15"/>
    <circle cx="334" cy="206" r="12"/>
  </g>
  <g fill="#5ba249">
    <ellipse cx="266" cy="170" rx="8" ry="14" transform="rotate(-28 266 170)"/>
    <ellipse cx="308" cy="178" rx="8" ry="14" transform="rotate(14 308 178)"/>
    <ellipse cx="430" cy="202" rx="8" ry="14" transform="rotate(28 430 202)"/>
  </g>
  <path d="M450 146c18 0 38 14 48 38-20-2-36-6-50-18-6-6-8-12-8-20 2 0 6 0 10 0z" fill="#b85d2d"/>
  <text x="320" y="332" text-anchor="middle" font-family="Manrope, Arial, sans-serif" font-size="31" font-weight="800" fill="#7f461c">Chicken Biryani</text>
</svg>
