<svg xmlns="http://www.w3.org/2000/svg" viewBox="0 0 640 420" role="img" aria-labelledby="title desc">
  <title id="title">Chicken Burger illustration</title>
  <desc id="desc">A stacked chicken burger with sesame bun, lettuce, cheese, and a crispy patty.</desc>
  <defs>
    <linearGradient id="bg" x1="0%" y1="0%" x2="100%" y2="100%">
      <stop offset="0%" stop-color="#fff8e8"/>
      <stop offset="100%" stop-color="#ffd9bb"/>
    </linearGradient>
    <linearGradient id="bunTop" x1="0%" y1="0%" x2="0%" y2="100%">
      <stop offset="0%" stop-color="#f0b255"/>
      <stop offset="100%" stop-color="#d48125"/>
    </linearGradient>
    <linearGradient id="patty" x1="0%" y1="0%" x2="100%" y2="100%">
      <stop offset="0%" stop-color="#8d4a2c"/>
      <stop offset="100%" stop-color="#6d311c"/>
    </linearGradient>
  </defs>
  <rect width="640" height="420" rx="36" fill="url(#bg)"/>
  <circle cx="120" cy="92" r="60" fill="#ffebb8" opacity="0.75"/>
  <circle cx="520" cy="84" r="74" fill="#ffd8c0" opacity="0.72"/>
  <ellipse cx="320" cy="358" rx="214" ry="24" fill="#ba9a80" opacity="0.28"/>
  <path d="M180 226c0-62 62-108 140-108s140 46 140 108z" fill="url(#bunTop)"/>
  <g fill="#fff6d7">
    <ellipse cx="254" cy="148" rx="8" ry="5" transform="rotate(20 254 148)"/>
    <ellipse cx="294" cy="136" rx="8" ry="5" transform="rotate(-10 294 136)"/>
    <ellipse cx="334" cy="144" rx="8" ry="5" transform="rotate(12 334 144)"/>
    <ellipse cx="378" cy="152" rx="8" ry="5" transform="rotate(-18 378 152)"/>
  </g>
  <path d="M192 228h256c0 14-10 28-28 28H220c-18 0-28-14-28-28z" fill="#5aa64d"/>
  <path d="M196 248h248c0 16-12 30-30 30H226c-18 0-30-14-30-30z" fill="#f7cc55"/>
  <path d="M180 264h280c0 28-22 52-50 52H230c-28 0-50-24-50-52z" fill="url(#patty)"/>
  <path d="M194 286h252c0 12-10 24-24 24H218c-14 0-24-12-24-24z" fill="#f3f0e0"/>
  <path d="M168 302h304c0 30-24 56-54 56H222c-30 0-54-26-54-56z" fill="#d58b37"/>
  <path d="M198 244c22 8 52 8 74 0 22-8 52-8 74 0 22 8 52 8 74 0" stroke="#82c962" stroke-width="8" stroke-linecap="round"/>
  <text x="320" y="104" text-anchor="middle" font-family="Manrope, Arial, sans-serif" font-size="24" font-weight="700" fill="#8e4a20">Crispy special</text>
  <text x="320" y="390" text-anchor="middle" font-family="Manrope, Arial, sans-serif" font-size="31" font-weight="800" fill="#7b4118">Chicken Burger</text>
</svg>
