<svg xmlns="http://www.w3.org/2000/svg" viewBox="0 0 640 420">
  <rect width="640" height="420" rx="36" fill="#fff4e5"/>
  <circle cx="112" cy="86" r="56" fill="#ffe4b0"/>
  <circle cx="536" cy="84" r="62" fill="#ffd5bc"/>
  <ellipse cx="320" cy="358" rx="212" ry="24" fill="#d3b091" opacity="0.26"/>
  <ellipse cx="320" cy="232" rx="164" ry="66" fill="#f0c76b"/>
  <path d="M156 232c16 78 78 124 164 124s148-46 164-124z" fill="#eef4f8"/>
  <path d="M194 208c42 12 78 18 114 18 44 0 84-8 138-24" stroke="#db8e2b" stroke-width="12" stroke-linecap="round"/>
  <path d="M204 236c44 14 86 18 118 18 38 0 74-8 112-18" stroke="#ffffff" stroke-width="12" stroke-linecap="round" opacity="0.7"/>
  <circle cx="252" cy="194" r="14" fill="#81513a"/>
  <circle cx="388" cy="190" r="14" fill="#81513a"/>
  <text x="320" y="336" text-anchor="middle" font-family="Manrope, Arial, sans-serif" font-size="32" font-weight="800" fill="#7a441c">Chicken Biryani</text>
</svg>
