<svg xmlns="http://www.w3.org/2000/svg" viewBox="0 0 640 420" role="img" aria-labelledby="title desc">
  <title id="title">Dahi Puri illustration</title>
  <desc id="desc">Dahi puri with yogurt, chutneys, and sev on a plate.</desc>
  <defs>
    <linearGradient id="bg" x1="0%" y1="0%" x2="100%" y2="100%">
      <stop offset="0%" stop-color="#fff8ec"/>
      <stop offset="100%" stop-color="#ffd9c0"/>
    </linearGradient>
  </defs>
  <rect width="640" height="420" rx="36" fill="url(#bg)"/>
  <circle cx="112" cy="86" r="58" fill="#ffe8bb" opacity="0.78"/>
  <circle cx="530" cy="84" r="68" fill="#ffd8c6" opacity="0.72"/>
  <ellipse cx="320" cy="356" rx="214" ry="24" fill="#bda08a" opacity="0.24"/>
  <ellipse cx="320" cy="244" rx="186" ry="68" fill="#f3efe7"/>
  <g fill="#cd9448">
    <circle cx="226" cy="220" r="38"/>
    <circle cx="286" cy="198" r="42"/>
    <circle cx="354" cy="202" r="42"/>
    <circle cx="414" cy="222" r="38"/>
  </g>
  <path d="M198 206c38 16 74 24 122 24 50 0 86-8 126-24" stroke="#fffaf3" stroke-width="14" stroke-linecap="round"/>
  <path d="M204 226c44 18 72 22 120 22 54 0 92-6 122-22" stroke="#d44f39" stroke-width="10" stroke-linecap="round"/>
  <path d="M208 246c38 12 70 18 112 18 54 0 90-6 118-18" stroke="#f5d86b" stroke-width="10" stroke-linecap="round"/>
  <text x="320" y="338" text-anchor="middle" font-family="Manrope, Arial, sans-serif" font-size="31" font-weight="800" fill="#7b421a">Dahi Puri</text>
</svg>
