<svg xmlns="http://www.w3.org/2000/svg" viewBox="0 0 640 420">
  <rect width="640" height="420" rx="36" fill="#fff3e9"/>
  <circle cx="116" cy="90" r="56" fill="#ffe7b4"/>
  <circle cx="532" cy="86" r="60" fill="#ffd8ca"/>
  <ellipse cx="320" cy="356" rx="212" ry="24" fill="#d2b297" opacity="0.24"/>
  <ellipse cx="320" cy="232" rx="154" ry="58" fill="#d59e58"/>
  <path d="M180 232c18 76 74 120 140 120s122-44 140-120z" fill="#eef4f9"/>
  <path d="M214 196c34 16 168 16 212 0" stroke="#ffffff" stroke-width="18" stroke-linecap="round"/>
  <path d="M220 216c34 16 154 16 200 0" stroke="#8a3d2b" stroke-width="14" stroke-linecap="round"/>
  <path d="M228 236c38 10 144 10 184 0" stroke="#f2bf45" stroke-width="10" stroke-linecap="round"/>
  <circle cx="262" cy="182" r="8" fill="#d74b38"/>
  <circle cx="378" cy="184" r="8" fill="#5aa24f"/>
  <text x="320" y="332" text-anchor="middle" font-family="Manrope, Arial, sans-serif" font-size="36" font-weight="800" fill="#7b441d">Dahi Puri</text>
</svg>
