<svg xmlns="http://www.w3.org/2000/svg" viewBox="0 0 640 420">
  <rect width="640" height="420" rx="36" fill="#fff3df"/>
  <circle cx="110" cy="96" r="58" fill="#ffe0a6"/>
  <circle cx="534" cy="88" r="64" fill="#ffd5b5"/>
  <ellipse cx="320" cy="356" rx="210" ry="24" fill="#d6b89c" opacity="0.25"/>
  <path d="M214 182h212l-22 126c-4 20-20 34-40 34h-88c-20 0-36-14-40-34z" fill="#ca3b31"/>
  <rect x="236" y="102" width="20" height="122" rx="10" fill="#f8c84d" transform="rotate(-8 236 102)"/>
  <rect x="272" y="94" width="20" height="132" rx="10" fill="#ffd560" transform="rotate(-2 272 94)"/>
  <rect x="308" y="98" width="20" height="126" rx="10" fill="#f5c246" transform="rotate(6 308 98)"/>
  <rect x="344" y="92" width="20" height="132" rx="10" fill="#ffd45d" transform="rotate(-4 344 92)"/>
  <rect x="378" y="108" width="20" height="116" rx="10" fill="#f2bc40" transform="rotate(9 378 108)"/>
  <text x="320" y="330" text-anchor="middle" font-family="Manrope, Arial, sans-serif" font-size="34" font-weight="800" fill="#8b4e18">French Fries</text>
</svg>
