<svg xmlns="http://www.w3.org/2000/svg" viewBox="0 0 640 420">
  <rect width="640" height="420" rx="36" fill="#fff3e7"/>
  <circle cx="112" cy="86" r="58" fill="#ffe4b5"/>
  <circle cx="536" cy="86" r="62" fill="#ffd7c3"/>
  <ellipse cx="320" cy="358" rx="212" ry="24" fill="#d2b399" opacity="0.25"/>
  <g transform="translate(138 84) rotate(-7 182 120)">
    <rect x="64" y="40" width="276" height="172" rx="34" fill="#f1debc"/>
    <rect x="98" y="72" width="206" height="110" rx="28" fill="#8b4f31"/>
    <path d="M102 90c44-16 84-16 124 2 30 12 48 12 84 0" stroke="#66b058" stroke-width="18" stroke-linecap="round"/>
    <path d="M100 120c50 14 100 14 146 0 26-8 42-8 70 4" stroke="#f4d15c" stroke-width="18" stroke-linecap="round"/>
    <path d="M108 150c40 14 74 14 110 2 42-14 64-12 108 8" stroke="#ffffff" stroke-width="20" stroke-linecap="round" opacity="0.7"/>
    <path d="M74 54l54 168" stroke="#e7d2ac" stroke-width="30" stroke-linecap="round"/>
  </g>
  <text x="320" y="336" text-anchor="middle" font-family="Manrope, Arial, sans-serif" font-size="32" font-weight="800" fill="#764018">Large Shawarma</text>
</svg>
