<svg xmlns="http://www.w3.org/2000/svg" viewBox="0 0 640 420" role="img" aria-labelledby="title desc">
  <title id="title">Loaded French Fries illustration</title>
  <desc id="desc">A tray of loaded fries topped with cheese, sauce, and herbs.</desc>
  <defs>
    <linearGradient id="bg" x1="0%" y1="0%" x2="100%" y2="100%">
      <stop offset="0%" stop-color="#fff7e6"/>
      <stop offset="100%" stop-color="#ffd3b4"/>
    </linearGradient>
    <linearGradient id="fries" x1="0%" y1="0%" x2="0%" y2="100%">
      <stop offset="0%" stop-color="#ffd96d"/>
      <stop offset="100%" stop-color="#d88a20"/>
    </linearGradient>
    <linearGradient id="tray" x1="0%" y1="0%" x2="100%" y2="100%">
      <stop offset="0%" stop-color="#c84036"/>
      <stop offset="100%" stop-color="#8f1f1a"/>
    </linearGradient>
  </defs>
  <rect width="640" height="420" rx="36" fill="url(#bg)"/>
  <circle cx="110" cy="90" r="58" fill="#ffe9b8" opacity="0.78"/>
  <circle cx="532" cy="82" r="68" fill="#ffd5c0" opacity="0.72"/>
  <ellipse cx="320" cy="356" rx="216" ry="24" fill="#b99a82" opacity="0.25"/>
  <path d="M176 186h288l-34 130c-8 28-34 48-64 48H274c-32 0-58-22-64-52z" fill="url(#tray)"/>
  <g fill="url(#fries)">
    <rect x="208" y="96" width="20" height="140" rx="10" transform="rotate(-10 208 96)"/>
    <rect x="238" y="86" width="20" height="150" rx="10" transform="rotate(-3 238 86)"/>
    <rect x="270" y="92" width="20" height="144" rx="10" transform="rotate(8 270 92)"/>
    <rect x="304" y="82" width="20" height="154" rx="10" transform="rotate(-4 304 82)"/>
    <rect x="336" y="98" width="20" height="138" rx="10" transform="rotate(7 336 98)"/>
    <rect x="370" y="92" width="20" height="144" rx="10" transform="rotate(-8 370 92)"/>
    <rect x="402" y="106" width="20" height="130" rx="10" transform="rotate(10 402 106)"/>
  </g>
  <path d="M214 188c36 24 64 36 106 36 50 0 82-10 128-38" stroke="#f8d46d" stroke-width="12" stroke-linecap="round"/>
  <path d="M224 202c42 0 86 20 192 0" stroke="#fff2c4" stroke-width="10" stroke-linecap="round" opacity="0.72"/>
  <path d="M220 216c48 8 118 8 200-2" stroke="#f1bf43" stroke-width="10" stroke-linecap="round"/>
  <g fill="#f5efe5">
    <path d="M252 208c26 0 36 20 60 20s34-20 58-20 32 20 56 20 32-20 50-20" opacity="0.9"/>
  </g>
  <g fill="#5ea949">
    <circle cx="248" cy="194" r="6"/>
    <circle cx="292" cy="222" r="6"/>
    <circle cx="350" cy="198" r="6"/>
    <circle cx="404" cy="214" r="6"/>
  </g>
  <text x="320" y="338" text-anchor="middle" font-family="Manrope, Arial, sans-serif" font-size="29" font-weight="800" fill="#7a4017">Loaded French Fries</text>
</svg>
