<svg xmlns="http://www.w3.org/2000/svg" viewBox="0 0 640 420" role="img" aria-labelledby="title desc">
  <title id="title">Masala Maggi illustration</title>
  <desc id="desc">A bowl of spiced noodles with vegetables and herbs.</desc>
  <defs>
    <linearGradient id="bg" x1="0%" y1="0%" x2="100%" y2="100%">
      <stop offset="0%" stop-color="#fff6e7"/>
      <stop offset="100%" stop-color="#ffd5b7"/>
    </linearGradient>
    <linearGradient id="bowl" x1="0%" y1="0%" x2="0%" y2="100%">
      <stop offset="0%" stop-color="#fffdfb"/>
      <stop offset="100%" stop-color="#d9e0e8"/>
    </linearGradient>
  </defs>
  <rect width="640" height="420" rx="36" fill="url(#bg)"/>
  <circle cx="114" cy="88" r="58" fill="#ffe8b8" opacity="0.8"/>
  <circle cx="530" cy="84" r="68" fill="#ffd7c0" opacity="0.72"/>
  <ellipse cx="320" cy="356" rx="216" ry="24" fill="#bea08a" opacity="0.24"/>
  <ellipse cx="320" cy="224" rx="172" ry="72" fill="#f2d27a"/>
  <path d="M146 228c18 84 86 130 174 130s156-46 174-130z" fill="url(#bowl)"/>
  <path d="M196 202c28-34 70-50 124-50 58 0 98 16 124 50" stroke="#dca24c" stroke-width="14" fill="none" stroke-linecap="round"/>
  <path d="M206 220c30-24 64-34 114-34s86 10 114 34" stroke="#ebb956" stroke-width="12" fill="none" stroke-linecap="round"/>
  <path d="M218 242c26-20 58-28 102-28s76 8 102 28" stroke="#f4ca62" stroke-width="12" fill="none" stroke-linecap="round"/>
  <circle cx="244" cy="198" r="8" fill="#5ca64a"/>
  <circle cx="292" cy="180" r="8" fill="#d74f39"/>
  <circle cx="348" cy="188" r="8" fill="#5ca64a"/>
  <circle cx="398" cy="206" r="8" fill="#d74f39"/>
  <text x="320" y="340" text-anchor="middle" font-family="Manrope, Arial, sans-serif" font-size="31" font-weight="800" fill="#7c431d">Masala Maggi</text>
</svg>
