<svg xmlns="http://www.w3.org/2000/svg" viewBox="0 0 640 420" role="img" aria-labelledby="title desc">
  <title id="title">Mutton Biryani illustration</title>
  <desc id="desc">A rich bowl of mutton biryani with deep spices and herbs.</desc>
  <defs>
    <linearGradient id="bg" x1="0%" y1="0%" x2="100%" y2="100%">
      <stop offset="0%" stop-color="#fff4e6"/>
      <stop offset="100%" stop-color="#f8c9ad"/>
    </linearGradient>
    <linearGradient id="bowl" x1="0%" y1="0%" x2="0%" y2="100%">
      <stop offset="0%" stop-color="#fffdfc"/>
      <stop offset="100%" stop-color="#d6dde4"/>
    </linearGradient>
    <linearGradient id="rice" x1="0%" y1="0%" x2="100%" y2="100%">
      <stop offset="0%" stop-color="#f6c256"/>
      <stop offset="100%" stop-color="#be5d22"/>
    </linearGradient>
  </defs>
  <rect width="640" height="420" rx="36" fill="url(#bg)"/>
  <circle cx="118" cy="94" r="58" fill="#ffe1b7" opacity="0.85"/>
  <circle cx="530" cy="78" r="68" fill="#ffd3c5" opacity="0.72"/>
  <ellipse cx="320" cy="358" rx="214" ry="24" fill="#bc9a84" opacity="0.28"/>
  <ellipse cx="320" cy="216" rx="176" ry="72" fill="url(#rice)"/>
  <path d="M144 218c18 88 86 138 176 138s158-50 176-138z" fill="url(#bowl)"/>
  <path d="M190 188c40 18 82 26 124 26 48 0 90-8 136-28" stroke="#d6792f" stroke-width="14" stroke-linecap="round"/>
  <path d="M188 214c54 12 98 18 132 18 42 0 84-8 134-22" stroke="#ffecc8" stroke-width="12" stroke-linecap="round" opacity="0.76"/>
  <g fill="#6e3f2d">
    <circle cx="234" cy="190" r="15"/>
    <circle cx="286" cy="212" r="13"/>
    <circle cx="392" cy="188" r="16"/>
    <circle cx="430" cy="218" r="12"/>
  </g>
  <g fill="#5ea64a">
    <ellipse cx="262" cy="174" rx="8" ry="14" transform="rotate(-24 262 174)"/>
    <ellipse cx="348" cy="172" rx="8" ry="14" transform="rotate(18 348 172)"/>
    <ellipse cx="416" cy="196" rx="8" ry="14" transform="rotate(32 416 196)"/>
  </g>
  <path d="M176 252c42 14 88 20 144 20 56 0 102-6 144-20" stroke="#e2e6ea" stroke-width="8" stroke-linecap="round" opacity="0.85"/>
  <text x="320" y="332" text-anchor="middle" font-family="Manrope, Arial, sans-serif" font-size="31" font-weight="800" fill="#74381f">Mutton Biryani</text>
</svg>
