<svg xmlns="http://www.w3.org/2000/svg" viewBox="0 0 640 420" role="img" aria-labelledby="title desc">
  <title id="title">Vanilla Milkshake illustration</title>
  <desc id="desc">A creamy vanilla milkshake topped with whipped cream.</desc>
  <defs>
    <linearGradient id="bg" x1="0%" y1="0%" x2="100%" y2="100%">
      <stop offset="0%" stop-color="#fffaf0"/>
      <stop offset="100%" stop-color="#f6e3c7"/>
    </linearGradient>
    <linearGradient id="glass" x1="0%" y1="0%" x2="0%" y2="100%">
      <stop offset="0%" stop-color="#ffffff" stop-opacity="0.92"/>
      <stop offset="100%" stop-color="#f5edda" stop-opacity="0.74"/>
    </linearGradient>
  </defs>
  <rect width="640" height="420" rx="36" fill="url(#bg)"/>
  <circle cx="112" cy="84" r="58" fill="#fff0cf" opacity="0.78"/>
  <circle cx="530" cy="84" r="68" fill="#f3e2c8" opacity="0.72"/>
  <ellipse cx="320" cy="356" rx="210" ry="24" fill="#c1b39c" opacity="0.24"/>
  <rect x="236" y="108" width="168" height="198" rx="32" fill="url(#glass)"/>
  <rect x="252" y="140" width="136" height="152" rx="22" fill="#f2e2bf"/>
  <path d="M242 138c10-24 36-42 78-42s68 18 78 42c0 28-32 46-78 46s-78-18-78-46z" fill="#fffdf8"/>
  <path d="M260 154c18 8 34 12 60 12s44-4 60-12" stroke="#f8f2e6" stroke-width="8" stroke-linecap="round"/>
  <path d="M294 96l14 24" stroke="#c9b286" stroke-width="8" stroke-linecap="round"/>
  <path d="M340 90l12 34" stroke="#c9b286" stroke-width="8" stroke-linecap="round"/>
  <text x="320" y="338" text-anchor="middle" font-family="Manrope, Arial, sans-serif" font-size="28" font-weight="800" fill="#876d42">Vanilla Milkshake</text>
</svg>
