<svg xmlns="http://www.w3.org/2000/svg" viewBox="0 0 640 420" role="img" aria-labelledby="title desc">
  <title id="title">Veg Burger illustration</title>
  <desc id="desc">A colorful veg burger with lettuce, tomato, and patty.</desc>
  <defs>
    <linearGradient id="bg" x1="0%" y1="0%" x2="100%" y2="100%">
      <stop offset="0%" stop-color="#fff8ea"/>
      <stop offset="100%" stop-color="#ffd9bb"/>
    </linearGradient>
    <linearGradient id="bun" x1="0%" y1="0%" x2="0%" y2="100%">
      <stop offset="0%" stop-color="#efb45a"/>
      <stop offset="100%" stop-color="#d7852a"/>
    </linearGradient>
  </defs>
  <rect width="640" height="420" rx="36" fill="url(#bg)"/>
  <circle cx="118" cy="86" r="58" fill="#ffe8b8" opacity="0.8"/>
  <circle cx="526" cy="84" r="68" fill="#ffd8c0" opacity="0.72"/>
  <ellipse cx="320" cy="356" rx="214" ry="24" fill="#bca087" opacity="0.24"/>
  <path d="M184 226c0-62 62-108 136-108s136 46 136 108z" fill="url(#bun)"/>
  <g fill="#fff6d7">
    <ellipse cx="262" cy="148" rx="8" ry="5" transform="rotate(18 262 148)"/>
    <ellipse cx="306" cy="136" rx="8" ry="5" transform="rotate(-10 306 136)"/>
    <ellipse cx="348" cy="146" rx="8" ry="5" transform="rotate(14 348 146)"/>
  </g>
  <path d="M196 228h248c0 14-10 28-28 28H224c-18 0-28-14-28-28z" fill="#63af4d"/>
  <path d="M194 250h252c0 16-12 30-30 30H224c-18 0-30-14-30-30z" fill="#d94e39"/>
  <path d="M182 270h276c0 28-22 50-50 50H232c-28 0-50-22-50-50z" fill="#7a4d2b"/>
  <path d="M196 296h248c0 10-10 22-24 22H220c-14 0-24-12-24-22z" fill="#f4f0e0"/>
  <path d="M172 308h296c0 28-22 52-52 52H224c-30 0-52-24-52-52z" fill="#d88c39"/>
  <text x="320" y="390" text-anchor="middle" font-family="Manrope, Arial, sans-serif" font-size="31" font-weight="800" fill="#7b4118">Veg Burger</text>
</svg>
