<svg xmlns="http://www.w3.org/2000/svg" viewBox="0 0 640 420" role="img" aria-labelledby="title desc">
  <title id="title">Biryani illustration</title>
  <desc id="desc">A stylized bowl of biryani with rice, herbs, and spices.</desc>
  <defs>
    <linearGradient id="bg" x1="0%" y1="0%" x2="100%" y2="100%">
      <stop offset="0%" stop-color="#fff7e7"/>
      <stop offset="100%" stop-color="#ffe1c1"/>
    </linearGradient>
    <linearGradient id="bowl" x1="0%" y1="0%" x2="0%" y2="100%">
      <stop offset="0%" stop-color="#f6fbff"/>
      <stop offset="100%" stop-color="#dce6ef"/>
    </linearGradient>
  </defs>
  <rect width="640" height="420" rx="36" fill="url(#bg)"/>
  <circle cx="126" cy="88" r="56" fill="#ffe8b8" opacity="0.7"/>
  <circle cx="534" cy="84" r="68" fill="#ffd4bf" opacity="0.72"/>
  <ellipse cx="320" cy="358" rx="220" ry="24" fill="#d5b190" opacity="0.28"/>
  <ellipse cx="320" cy="230" rx="166" ry="64" fill="#f1c86d"/>
  <path d="M154 230c16 78 78 124 166 124s150-46 166-124z" fill="url(#bowl)"/>
  <path d="M190 218c38-34 112-52 130-44 24 12 62 22 128 40-12 18-42 40-130 40-70 0-102-10-128-36z" fill="#f5d98d"/>
  <path d="M196 208c40 12 78 18 112 18 44 0 86-8 136-26" stroke="#d9872a" stroke-width="12" stroke-linecap="round"/>
  <path d="M208 236c40 16 80 22 114 22 40 0 76-8 108-20" stroke="#ffffff" stroke-width="12" stroke-linecap="round" opacity="0.7"/>
  <circle cx="248" cy="194" r="14" fill="#7a4a34"/>
  <circle cx="392" cy="188" r="14" fill="#8f5437"/>
  <circle cx="310" cy="176" r="16" fill="#6fae4d"/>
  <path d="M302 140c18-30 42-42 64-34-10 20-24 32-50 50-10-2-14-6-14-16z" fill="#5da650"/>
</svg>
