<svg xmlns="http://www.w3.org/2000/svg" viewBox="0 0 640 420" role="img" aria-labelledby="title desc">
  <title id="title">Burger illustration</title>
  <desc id="desc">A stylized burger illustration with bun, lettuce, and patty.</desc>
  <defs>
    <linearGradient id="bg" x1="0%" y1="0%" x2="100%" y2="100%">
      <stop offset="0%" stop-color="#fff6e3"/>
      <stop offset="100%" stop-color="#ffd7b1"/>
    </linearGradient>
  </defs>
  <rect width="640" height="420" rx="36" fill="url(#bg)"/>
  <circle cx="126" cy="92" r="58" fill="#ffe7af" opacity="0.7"/>
  <circle cx="532" cy="78" r="68" fill="#ffd5b9" opacity="0.72"/>
  <ellipse cx="320" cy="360" rx="214" ry="22" fill="#ccaa88" opacity="0.28"/>
  <path d="M194 190c18-64 76-108 126-108s108 44 126 108z" fill="#f2b557"/>
  <circle cx="262" cy="138" r="6" fill="#fff3c7"/>
  <circle cx="296" cy="122" r="6" fill="#fff3c7"/>
  <circle cx="344" cy="132" r="6" fill="#fff3c7"/>
  <circle cx="374" cy="146" r="6" fill="#fff3c7"/>
  <rect x="194" y="192" width="252" height="18" rx="9" fill="#4fa84d"/>
  <rect x="188" y="212" width="264" height="20" rx="10" fill="#f7d24a"/>
  <rect x="198" y="232" width="244" height="38" rx="18" fill="#6d3728"/>
  <rect x="190" y="270" width="260" height="18" rx="9" fill="#8bc561"/>
  <rect x="196" y="286" width="248" height="48" rx="18" fill="#efb163"/>
  <path d="M206 318h228" stroke="#d79649" stroke-width="10" stroke-linecap="round"/>
</svg>
