<svg xmlns="http://www.w3.org/2000/svg" viewBox="0 0 640 420" role="img" aria-labelledby="title desc">
  <title id="title">Chaat illustration</title>
  <desc id="desc">A bowl of colorful Indian chaat with chutneys and sev.</desc>
  <defs>
    <linearGradient id="bg" x1="0%" y1="0%" x2="100%" y2="100%">
      <stop offset="0%" stop-color="#fffaf0"/>
      <stop offset="100%" stop-color="#ffe0c9"/>
    </linearGradient>
    <linearGradient id="bowl" x1="0%" y1="0%" x2="0%" y2="100%">
      <stop offset="0%" stop-color="#f5fbff"/>
      <stop offset="100%" stop-color="#dfe9f1"/>
    </linearGradient>
  </defs>
  <rect width="640" height="420" rx="36" fill="url(#bg)"/>
  <circle cx="138" cy="86" r="58" fill="#ffe7b7" opacity="0.7"/>
  <circle cx="528" cy="88" r="64" fill="#ffd3c3" opacity="0.75"/>
  <ellipse cx="320" cy="356" rx="220" ry="24" fill="#d5b39a" opacity="0.28"/>
  <ellipse cx="320" cy="236" rx="152" ry="54" fill="#e4c17f"/>
  <path d="M178 236c20 74 74 118 142 118s122-44 142-118z" fill="url(#bowl)"/>
  <circle cx="238" cy="214" r="28" fill="#d39a4b"/>
  <circle cx="312" cy="202" r="30" fill="#f1d085"/>
  <circle cx="386" cy="216" r="28" fill="#cf9250"/>
  <path d="M214 176c56-26 156-26 212 0-18 30-42 56-106 56s-90-24-106-56z" fill="#efd9a2"/>
  <path d="M212 206c40 16 176 16 216 0" stroke="#6aaf52" stroke-width="12" stroke-linecap="round"/>
  <path d="M218 188c38 18 166 18 204 0" stroke="#8c3b28" stroke-width="14" stroke-linecap="round"/>
  <path d="M224 224c30 12 158 12 188 0" stroke="#ffffff" stroke-width="18" stroke-linecap="round" opacity="0.78"/>
  <path d="M224 168c54 12 116 12 170 0" stroke="#f3bd3b" stroke-width="10" stroke-linecap="round"/>
  <circle cx="270" cy="156" r="8" fill="#d74a39"/>
  <circle cx="348" cy="150" r="8" fill="#d74a39"/>
  <circle cx="390" cy="164" r="8" fill="#5aa34d"/>
</svg>
